<?xml version="1.0" standalone="no"?>
<!DOCTYPE svg PUBLIC "-//W3C//DTD SVG 20010904//EN"
 "http://www.w3.org/TR/2001/REC-SVG-20010904/DTD/svg10.dtd">
<svg version="1.0" xmlns="http://www.w3.org/2000/svg"
 width="500.000000pt" height="500.000000pt" viewBox="0 0 500.000000 500.000000"
 preserveAspectRatio="xMidYMid meet">

<g transform="translate(0.000000,500.000000) scale(0.100000,-0.100000)"
fill="#000000" stroke="none">
<path d="M2981 4515 c-91 -17 -231 -54 -251 -67 -12 -8 -12 -9 3 -4 10 3 17 0
17 -9 0 -7 4 -17 10 -20 6 -4 7 1 3 11 -5 13 -3 15 8 8 8 -4 25 -7 38 -5 17 2
21 -1 16 -11 -6 -10 -5 -10 5 -1 11 10 11 15 0 28 -18 22 -4 19 19 -4 11 -11
16 -23 13 -27 -4 -4 -2 -4 5 0 7 4 10 13 6 21 -3 8 0 15 7 15 6 0 9 -4 6 -9
-3 -5 1 -14 9 -21 11 -9 15 -9 15 -1 0 8 5 9 19 1 15 -7 22 -7 28 2 9 15 43
20 43 7 0 -5 9 -9 20 -9 11 0 20 -4 20 -10 0 -5 -6 -7 -14 -4 -8 3 -16 -3 -19
-15 -3 -12 0 -21 6 -21 14 0 -38 -46 -108 -96 -30 -21 -54 -44 -55 -50 0 -7
-20 -18 -45 -25 -44 -13 -54 -22 -36 -33 4 -3 6 -18 3 -33 -5 -26 -4 -27 12
-14 9 8 16 10 15 5 -6 -26 30 -74 56 -74 9 0 13 -4 10 -10 -3 -6 1 -7 9 -4 9
3 16 1 16 -5 0 -6 9 -11 20 -11 11 0 20 -4 20 -10 0 -5 6 -10 14 -10 8 0 18
-4 21 -10 3 -6 -1 -7 -9 -4 -34 13 -13 -6 34 -32 54 -29 69 -55 48 -82 -11
-14 -10 -14 8 1 21 18 22 17 28 -8 4 -14 14 -29 24 -32 32 -12 44 -25 30 -34
-14 -9 2 -12 52 -10 22 1 23 0 5 -8 -18 -7 -15 -10 23 -28 23 -10 40 -21 38
-24 -2 -2 10 -5 27 -6 30 -2 31 -1 13 12 -11 8 -17 17 -14 20 7 7 85 -81 104
-118 11 -20 12 -32 4 -47 -6 -12 -7 -20 -1 -20 5 0 11 -6 14 -12 2 -7 2 -2 0
12 -3 19 -1 22 7 10 5 -8 9 -31 9 -50 0 -29 -2 -31 -9 -15 -7 16 -9 11 -9 -22
-1 -23 -8 -48 -16 -57 -9 -8 -16 -18 -15 -21 0 -3 0 -6 -1 -7 0 -2 -2 -11 -4
-20 -2 -9 -15 -29 -29 -45 -14 -15 -24 -33 -22 -39 2 -6 -1 -11 -7 -11 -7 1
-38 -12 -71 -27 -52 -26 -66 -28 -135 -24 -84 5 -148 32 -179 75 -12 16 -21
22 -26 15 -9 -15 71 -92 95 -92 10 0 19 -4 19 -10 0 -5 17 -12 38 -15 20 -4
46 -11 57 -16 15 -7 9 -8 -20 -3 -73 11 -123 41 -204 123 -84 87 -96 103 -31
45 22 -20 40 -32 40 -26 0 6 -26 33 -57 61 -65 58 -170 112 -255 131 -70 16
-182 9 -227 -14 -39 -21 -106 -89 -127 -129 -14 -27 -15 -70 -1 -83 4 -4 7
-17 7 -28 1 -20 1 -20 14 2 11 20 12 16 8 -37 -4 -52 0 -68 27 -125 40 -81 85
-120 268 -231 76 -46 158 -96 181 -111 24 -15 76 -43 115 -62 178 -87 392
-244 547 -401 64 -64 151 -186 163 -226 3 -11 24 -63 45 -116 52 -125 67 -218
59 -367 -8 -139 -46 -290 -70 -275 -6 4 -7 1 -2 -6 9 -16 -15 -62 -28 -54 -6
4 -8 0 -4 -10 9 -25 -13 -79 -29 -73 -8 3 -14 1 -14 -3 0 -5 4 -11 9 -13 16
-5 -70 -111 -139 -172 -81 -71 -167 -129 -290 -195 l-95 -51 161 0 c106 0 191
5 244 16 90 17 212 62 204 75 -3 5 1 7 8 4 31 -12 247 163 232 187 -4 7 -2 8
4 4 6 -4 18 6 27 23 8 17 23 38 33 48 10 10 25 34 32 53 7 19 20 43 28 52 8 9
11 22 6 29 -4 7 -3 10 3 6 12 -8 51 116 60 192 4 40 3 55 -8 62 -11 7 -11 9 4
9 14 0 17 9 17 54 0 45 -3 54 -20 59 -11 3 -20 1 -20 -4 0 -5 6 -9 13 -9 8 0
7 -4 -3 -10 -13 -9 -13 -10 0 -10 10 0 11 -3 4 -8 -6 -4 -12 -32 -13 -62 -2
-70 -53 -278 -81 -331 -11 -23 -31 -50 -43 -61 -12 -11 -15 -17 -7 -13 10 4 9
2 -2 -8 -10 -8 -18 -17 -18 -21 0 -7 -25 -32 -70 -69 -11 -10 -25 -15 -30 -12
-6 4 -7 -1 -3 -11 4 -11 2 -15 -4 -11 -6 4 -16 0 -23 -8 -7 -8 -17 -12 -23 -8
-5 3 -7 1 -4 -5 4 -5 -15 -27 -43 -47 -41 -30 -53 -34 -67 -25 -13 8 -13 10
-2 7 8 -3 26 1 40 9 l24 14 -24 -3 c-29 -2 -40 20 -14 30 10 4 38 25 62 47 24
23 50 40 57 40 8 -1 12 2 9 6 -8 12 23 33 36 24 8 -4 9 -3 5 4 -4 7 11 35 33
64 54 72 108 190 126 273 11 57 15 237 18 955 3 487 7 892 9 900 2 8 8 21 12
29 6 10 5 12 -2 7 -9 -5 -12 9 -12 47 0 29 3 56 6 60 10 9 16 129 7 124 -5 -3
-8 -21 -7 -41 1 -20 -2 -39 -7 -42 -5 -3 -9 10 -9 29 0 18 -7 57 -16 86 -8 29
-13 56 -10 59 3 3 6 -2 6 -11 0 -10 7 -15 20 -12 13 2 20 -2 20 -11 0 -17 -16
-19 -23 -1 -4 8 -6 7 -6 -4 -1 -8 6 -24 14 -35 14 -19 14 -19 15 0 0 11 2 17
5 14 19 -19 24 -181 26 -777 0 -369 4 -671 8 -671 4 0 7 27 5 60 -1 33 1 62 5
65 4 2 7 -29 7 -70 0 -40 -4 -73 -9 -72 -5 1 -11 -9 -13 -22 -3 -17 0 -22 10
-18 12 5 16 -7 18 -61 2 -37 3 293 3 733 -1 777 -1 802 -21 870 -65 221 -161
358 -332 471 -141 95 -240 124 -434 131 -98 4 -148 9 -148 16 0 6 10 33 23 59
15 32 28 48 41 48 18 0 18 1 1 20 -17 19 -16 21 44 81 61 62 74 92 45 103 -27
10 -196 5 -273 -9z m344 -362 c11 -7 14 -13 7 -13 -7 0 -10 -4 -7 -10 3 -5 -1
-10 -9 -10 -9 0 -15 5 -13 11 1 6 -4 14 -12 17 -9 3 -11 0 -6 -8 5 -9 4 -11
-4 -6 -6 4 -9 11 -6 16 3 5 -15 8 -40 8 -25 0 -48 -5 -52 -11 -4 -6 0 -8 10
-4 8 3 28 2 44 -3 22 -7 16 -8 -29 -7 -31 1 -54 5 -52 9 2 4 0 9 -6 13 -5 3
-10 1 -10 -4 0 -6 -10 -11 -22 -10 -13 0 -17 3 -9 6 11 5 11 7 0 14 -8 5 29 8
91 7 69 -1 112 -6 125 -15z m55 -3 c13 -8 13 -10 -2 -10 -9 0 -20 5 -23 10 -8
13 5 13 25 0z m65 -31 c0 -8 7 -17 15 -21 11 -6 10 -7 -5 -5 -13 2 -19 9 -17
20 2 10 -3 17 -12 17 -10 0 -13 -6 -10 -15 4 -8 1 -15 -5 -15 -6 0 -10 11 -9
24 2 19 6 22 23 16 11 -4 20 -14 20 -21z m-60 1 c-3 -5 -12 -10 -18 -10 -7 0
-6 4 3 10 19 12 23 12 15 0z m125 -16 c0 -8 -19 -13 -24 -6 -3 5 1 9 9 9 8 0
15 -2 15 -3z m-103 -666 c-3 -8 -6 -5 -6 6 -1 11 2 17 5 13 3 -3 4 -12 1 -19z
m-642 -18 c3 -6 -1 -7 -9 -4 -18 7 -21 14 -7 14 6 0 13 -4 16 -10z m400 -220
c-3 -5 -12 -10 -18 -10 -7 0 -6 4 3 10 19 12 23 12 15 0z m861 -896 c0 -13 -2
-22 -5 -19 -3 3 -6 17 -7 31 0 13 2 22 5 19 3 -3 6 -17 7 -31z m-1 -44 c3 -5
1 -10 -4 -10 -6 0 -11 5 -11 10 0 6 2 10 4 10 3 0 8 -4 11 -10z m0 -179 c3 -5
2 -12 -3 -15 -5 -3 -9 1 -9 9 0 17 3 19 12 6z m5 -521 c0 -5 -2 -10 -4 -10 -3
0 -8 5 -11 10 -3 6 -1 10 4 10 6 0 11 -4 11 -10z m-13 -102 c-3 -7 -5 -2 -5
12 0 14 2 19 5 13 2 -7 2 -19 0 -25z m-451 -543 c-8 -8 -18 -15 -22 -15 -3 0
-1 7 6 15 7 8 17 15 22 15 5 0 3 -7 -6 -15z m-41 -24 c-3 -6 3 -15 12 -21 12
-7 13 -10 3 -7 -19 5 -52 -11 -46 -22 3 -4 -8 -8 -23 -7 -24 1 -27 4 -18 15
10 12 8 14 -8 8 -20 -7 -20 -7 0 8 12 10 31 14 50 10 16 -2 24 -2 16 1 -11 5
-11 8 0 15 18 11 22 11 14 0z m50 -19 c-3 -3 -11 0 -18 7 -9 10 -8 11 6 5 10
-3 15 -9 12 -12z m-237 -39 c-10 -2 -26 -2 -35 0 -10 3 -2 5 17 5 19 0 27 -2
18 -5z m-57 -15 c15 -22 9 -34 -6 -14 -13 17 -15 17 -15 4 0 -11 -8 -16 -20
-15 -11 1 -20 8 -20 15 0 10 -8 13 -25 10 -14 -3 -27 -2 -30 2 -2 3 21 8 52 9
37 1 59 -2 64 -11z m118 -5 c-6 -7 -15 -10 -20 -7 -13 8 -3 21 15 21 12 0 13
-4 5 -14z m-69 -14 c0 -4 -7 -6 -15 -3 -8 4 -15 10 -15 15 0 4 7 6 15 3 8 -4
15 -10 15 -15z"/>
<path d="M3235 810 c3 -5 8 -10 11 -10 2 0 4 5 4 10 0 6 -5 10 -11 10 -5 0 -7
-4 -4 -10z"/>
<path d="M2685 4429 c-14 -5 -15 -8 -5 -9 8 -1 25 -3 38 -4 27 -3 28 0 5 12
-10 5 -27 6 -38 1z"/>
<path d="M2610 4399 c-12 -8 -10 -9 9 -4 17 5 22 4 16 -5 -5 -9 -4 -11 4 -6 6
4 9 12 6 17 -8 12 -16 11 -35 -2z"/>
<path d="M1560 4188 c-78 -11 -199 -51 -260 -86 -64 -36 -111 -73 -105 -82 3
-5 0 -12 -6 -16 -8 -4 -9 -3 -5 4 11 19 -9 14 -27 -6 -10 -10 -14 -22 -10 -27
5 -4 3 -5 -4 -1 -7 4 -19 -6 -29 -23 -10 -17 -22 -27 -27 -24 -6 3 -7 1 -4 -4
4 -6 -5 -18 -19 -28 -15 -9 -23 -22 -20 -31 3 -7 0 -13 -6 -11 -26 5 -119
-205 -132 -298 l-5 -40 11 38 c16 52 27 47 14 -7 -6 -25 -15 -44 -21 -43 -6 1
-10 -53 -11 -158 l0 -160 6 160 c3 88 7 156 9 150 2 -5 3 -14 2 -18 -1 -5 3
-5 9 -2 6 4 9 9 7 12 -10 10 44 186 78 254 21 40 34 78 30 87 -3 9 -3 13 1 10
4 -4 22 12 40 37 78 102 229 206 371 257 84 30 96 32 276 36 160 4 187 2 187
-11 0 -12 -26 -15 -142 -20 -215 -9 -311 -39 -483 -152 -137 -91 -214 -196
-272 -375 l-38 -115 0 -1020 c0 -766 3 -1030 12 -1060 7 -22 20 -66 29 -97 9
-32 21 -58 26 -58 6 0 7 -7 4 -16 -7 -19 11 -57 24 -49 6 3 7 0 4 -8 -6 -16
87 -145 98 -137 4 3 15 -5 23 -18 9 -12 21 -19 27 -16 6 4 8 2 5 -4 -9 -13 90
-85 105 -76 6 4 8 3 5 -3 -3 -5 11 -17 31 -27 20 -9 30 -11 22 -4 -8 7 -16 20
-18 28 -2 8 -10 22 -19 30 -12 11 -14 12 -8 1 5 -9 4 -12 -3 -7 -6 4 -9 12 -6
19 6 16 -33 67 -51 67 -7 0 -18 7 -25 15 -7 8 -17 12 -23 8 -5 -3 -7 -2 -4 4
3 5 -13 26 -37 46 -47 39 -88 127 -85 182 2 30 -19 150 -47 280 -24 108 -23
164 2 279 5 21 3 27 -6 21 -9 -5 -11 -4 -6 4 4 6 11 9 15 6 5 -2 22 23 39 58
17 34 51 89 76 122 24 33 42 63 39 68 -2 4 -1 6 4 5 4 -2 41 32 82 75 40 42
77 77 82 77 4 0 25 11 45 25 33 23 74 33 74 20 0 -3 -8 -18 -17 -32 -16 -24
-16 -26 -2 -21 15 6 15 4 2 -22 -18 -37 -24 -103 -10 -112 8 -4 7 -11 -1 -21
-7 -7 -10 -16 -8 -18 2 -2 7 -41 10 -86 3 -44 11 -92 17 -106 11 -25 12 -25
48 -9 58 25 165 21 240 -8 75 -30 119 -79 178 -198 42 -84 143 -195 203 -224
19 -9 71 -26 114 -39 64 -17 95 -21 160 -16 94 7 177 32 224 67 51 38 94 136
95 213 1 87 -44 179 -118 243 -30 26 -51 52 -48 57 3 6 1 7 -4 4 -10 -6 -111
54 -318 188 -27 18 -86 52 -130 75 -99 52 -236 135 -261 158 -11 10 -62 49
-114 89 -52 39 -138 115 -191 170 -86 88 -103 112 -152 214 -72 146 -97 246
-97 379 0 150 21 234 93 375 54 104 74 131 154 212 51 51 97 93 103 93 6 0 55
27 110 60 60 36 107 57 120 55 12 -2 20 1 20 9 0 8 46 37 103 65 l102 51 -255
-1 c-140 -1 -284 -6 -320 -11z m-565 -437 c-3 -12 -10 -21 -15 -21 -4 0 -3 11
3 24 14 29 22 27 12 -3z m-40 -98 c-5 -10 -9 -24 -11 -31 -1 -8 -5 -17 -8 -20
-7 -6 -3 19 9 56 4 12 10 21 13 18 2 -3 1 -13 -3 -23z m32 -765 c-3 -8 -6 -5
-6 6 -1 11 2 17 5 13 3 -3 4 -12 1 -19z m0 -345 c-2 -21 -4 -4 -4 37 0 41 2
58 4 38 2 -21 2 -55 0 -75z m0 -575 c-3 -7 -5 -2 -5 12 0 14 2 19 5 13 2 -7 2
-19 0 -25z m0 -370 c-2 -13 -4 -3 -4 22 0 25 2 35 4 23 2 -13 2 -33 0 -45z
m243 -554 c0 -8 -19 -13 -24 -6 -3 5 1 9 9 9 8 0 15 -2 15 -3z"/>
<path d="M2777 4093 c-3 -5 1 -14 9 -21 12 -10 14 -10 14 2 0 17 -16 30 -23
19z"/>
<path d="M1871 4049 c-27 -29 -19 -37 9 -9 12 12 19 24 17 26 -3 3 -14 -5 -26
-17z"/>
<path d="M2379 3944 c-13 -7 -30 -13 -37 -14 -21 0 -100 -39 -109 -53 -4 -6
-20 -18 -35 -26 -16 -8 -26 -17 -23 -19 3 -3 -2 -10 -11 -16 -8 -7 -19 -37
-23 -70 -4 -32 -12 -61 -18 -64 -13 -9 -63 -119 -56 -126 3 -2 1 -11 -3 -18
-13 -21 -11 -47 4 -53 10 -4 11 -9 4 -18 -7 -8 -6 -21 3 -42 7 -16 14 -24 14
-17 1 7 6 10 11 7 6 -4 8 -12 5 -18 -3 -7 2 -1 12 13 10 14 38 46 62 72 91 99
282 160 433 139 49 -7 76 -7 85 0 7 6 18 7 24 3 9 -5 10 -2 5 11 -4 10 -2 21
4 25 13 8 3 60 -11 60 -5 0 -9 11 -9 24 0 17 -7 26 -24 30 -14 3 -27 15 -31
26 -3 11 -12 17 -20 14 -9 -4 -13 1 -13 13 2 28 -52 103 -74 103 -14 0 -18 5
-14 16 5 13 -4 15 -63 13 -38 -1 -79 -8 -92 -15z"/>
<path d="M1905 3939 c4 -6 1 -9 -6 -8 -8 2 -24 -3 -35 -11 l-22 -13 21 -17
c16 -13 17 -19 7 -25 -8 -5 -11 -4 -6 3 10 16 -14 26 -27 12 -9 -10 -9 -11 2
-5 10 6 12 4 7 -4 -5 -7 -14 -10 -22 -7 -7 3 -16 1 -19 -4 -4 -6 -1 -10 5 -10
6 0 19 -7 27 -16 14 -13 14 -17 2 -26 -10 -7 -7 -7 10 -3 19 6 23 4 18 -9 -7
-19 9 -31 19 -15 4 8 3 9 -4 5 -17 -10 -15 -1 3 14 12 10 13 8 10 -10 -7 -35
-31 -48 -47 -25 -4 5 -6 0 -5 -13 1 -23 21 -30 32 -12 4 6 11 7 17 4 7 -5 8
-2 3 6 -6 10 -3 12 11 8 20 -5 40 10 61 46 8 16 8 27 -1 46 -7 14 -12 37 -11
53 0 15 -3 27 -8 27 -4 0 -5 5 -2 10 3 6 2 10 -4 10 -5 0 -12 -6 -14 -12 -4
-10 -6 -10 -6 0 -1 6 -6 12 -12 12 -5 0 -7 -5 -4 -11z m18 -126 c-3 -7 -6 -13
-8 -13 -2 0 -5 6 -8 13 -3 8 1 14 8 14 7 0 11 -6 8 -14z"/>
<path d="M3083 3769 c-13 -5 -23 -11 -23 -15 0 -3 7 -4 15 0 19 7 19 -3 0 -28
-14 -18 -20 -15 -15 9 3 21 -18 -10 -25 -35 -5 -19 -4 -21 4 -10 6 8 11 11 11
5 0 -17 -14 -32 -36 -39 -11 -3 -28 -22 -37 -41 -9 -20 -24 -38 -32 -41 -8 -4
-13 -10 -10 -14 3 -5 1 -11 -5 -15 -5 -3 -10 -3 -10 2 0 12 -49 10 -54 -3 -6
-16 128 -153 165 -168 21 -9 43 -11 68 -5 21 5 40 4 45 -1 6 -6 15 -10 21 -10
5 0 3 5 -5 10 -12 7 -8 11 17 16 17 3 34 13 37 21 3 8 1 11 -4 8 -6 -3 -10 -1
-10 4 0 6 6 11 14 11 8 0 18 5 22 12 5 7 2 9 -7 4 -8 -4 -5 0 5 8 11 9 26 16
33 16 20 0 16 97 -6 145 -38 85 -137 170 -178 154z m-61 -126 c-6 -2 -9 -10
-5 -16 3 -7 3 -9 -2 -5 -4 4 -14 0 -22 -10 -9 -10 -12 -11 -7 -2 12 26 26 40
38 39 7 0 6 -2 -2 -6z m248 -153 c0 -5 -2 -10 -4 -10 -3 0 -8 5 -11 10 -3 6
-1 10 4 10 6 0 11 -4 11 -10z"/>
<path d="M3310 3686 c0 -10 4 -15 9 -11 5 3 12 -3 14 -12 4 -15 5 -15 6 -2 0
9 -6 22 -14 29 -12 10 -15 9 -15 -4z"/>
<path d="M3347 3643 c-4 -6 2 -18 13 -28 23 -21 27 -8 7 20 -8 11 -16 14 -20
8z"/>
<path d="M3326 3617 c3 -10 9 -15 12 -12 3 3 0 11 -7 18 -10 9 -11 8 -5 -6z"/>
<path d="M913 3380 c0 -47 2 -66 4 -42 2 23 2 61 0 85 -2 23 -4 4 -4 -43z"/>
<path d="M911 3244 c0 -11 3 -14 6 -6 3 7 2 16 -1 19 -3 4 -6 -2 -5 -13z"/>
<path d="M2326 2391 c-4 -5 -2 -12 4 -16 7 -4 7 -13 -1 -28 -10 -21 -10 -21 5
-3 13 17 18 18 29 6 10 -10 9 -11 -2 -5 -9 5 -7 -1 4 -19 9 -14 21 -24 25 -21
5 3 10 2 13 -2 2 -5 2 -2 0 5 -1 8 3 12 9 10 7 -3 13 -10 13 -16 0 -6 27 -27
60 -47 l60 -36 -30 30 c-16 16 -37 31 -44 33 -8 2 -26 15 -39 30 -37 43 -100
89 -106 79z m61 -73 c-3 -8 -6 -5 -6 6 -1 11 2 17 5 13 3 -3 4 -12 1 -19z"/>
<path d="M3056 2382 c-3 -5 1 -9 9 -9 8 0 12 4 9 9 -3 4 -7 8 -9 8 -2 0 -6 -4
-9 -8z"/>
<path d="M3112 2291 c-12 -7 -11 -14 3 -41 14 -27 14 -32 3 -27 -11 4 -14 -1
-10 -21 3 -15 7 -22 9 -16 2 7 13 10 24 7 20 -5 20 -5 -1 30 -20 34 -20 36 -3
46 17 10 17 10 0 11 -10 0 -15 5 -12 10 7 12 4 12 -13 1z"/>
<path d="M3162 2271 c2 -19 -3 -31 -12 -26 -15 9 -12 -8 6 -33 8 -12 23 -22
32 -22 13 0 14 2 4 9 -9 5 -4 8 16 7 40 -1 24 -21 -20 -24 -34 -3 -57 -17 -45
-28 4 -4 13 -1 22 6 9 7 18 10 22 7 3 -4 -2 -9 -11 -13 -9 -3 -13 -10 -10 -15
3 -5 -3 -9 -13 -9 -15 0 -16 -2 -3 -11 12 -9 11 -10 -7 -6 -26 6 -31 -8 -7
-17 9 -4 24 -1 32 6 13 11 15 10 9 -5 -4 -10 0 -34 7 -52 14 -33 23 -47 57
-84 8 -9 13 -23 11 -31 -3 -8 0 -10 8 -5 9 5 11 4 6 -3 -4 -7 4 -27 18 -44 24
-33 40 -79 52 -153 3 -22 10 -45 15 -51 4 -5 6 -22 4 -36 -4 -21 -1 -25 18
-24 12 0 25 5 29 11 4 5 10 2 14 -8 6 -17 8 -16 21 3 10 15 21 19 35 14 14 -4
18 -3 13 6 -9 14 26 10 38 -5 4 -5 5 31 3 80 -4 101 -32 196 -92 315 -32 64
-38 71 -49 57 -11 -16 -12 -15 -12 8 0 14 4 22 10 18 6 -4 7 -1 2 6 -5 9 -11
9 -17 3 -16 -16 -41 -3 -27 14 6 8 16 11 22 7 6 -4 7 -1 2 6 -5 9 -10 10 -18
2 -15 -15 -30 -14 -21 1 4 7 3 8 -5 4 -6 -4 -9 -11 -6 -16 3 -5 -4 -8 -15 -7
-24 2 -24 2 -4 21 8 9 11 16 5 16 -6 0 -8 7 -4 16 6 15 8 15 20 -2 7 -10 13
-13 13 -7 0 5 -11 22 -25 37 -22 24 -37 24 -17 1 5 -6 0 -26 -10 -45 -16 -31
-24 -33 -18 -5 9 43 8 54 -8 67 -19 17 -52 20 -52 5 0 -5 7 -6 16 -3 17 7 44
-9 44 -26 0 -6 -7 -4 -16 3 -9 8 -27 12 -40 11 -22 -3 -23 -1 -15 21 8 21 6
26 -9 30 -11 3 -19 2 -18 -2z m9 -42 c-5 -13 -10 -19 -10 -12 -1 15 10 45 15
40 3 -2 0 -15 -5 -28z m70 -62 c-8 -8 -11 -7 -11 4 0 20 13 34 18 19 3 -7 -1
-17 -7 -23z m-34 -33 c-3 -3 -12 -4 -19 -1 -8 3 -5 6 6 6 11 1 17 -2 13 -5z"/>
<path d="M3230 2272 c0 -4 10 -13 23 -21 22 -14 22 -14 3 8 -20 22 -26 25 -26
13z"/>
<path d="M3085 2239 c-4 -6 -5 -12 -2 -15 2 -3 7 2 10 11 7 17 1 20 -8 4z"/>
<path d="M2564 2036 c1 -8 5 -18 8 -22 4 -3 5 1 4 10 -1 8 -5 18 -8 22 -4 3
-5 -1 -4 -10z"/>
<path d="M4004 2014 c-1 -13 2 -21 7 -18 11 6 12 31 2 37 -5 3 -9 -6 -9 -19z"/>
<path d="M4003 1928 c1 -15 6 -23 11 -18 4 4 4 16 -2 26 -9 16 -10 14 -9 -8z"/>
<path d="M4033 1865 c0 -33 2 -45 4 -27 2 18 2 45 0 60 -2 15 -4 0 -4 -33z"/>
<path d="M4006 1882 c-6 -11 -3 -93 3 -86 5 4 9 94 4 94 -1 0 -4 -4 -7 -8z"/>
<path d="M4028 1775 c-3 -14 -1 -25 3 -25 5 0 9 11 9 25 0 14 -2 25 -4 25 -2
0 -6 -11 -8 -25z"/>
<path d="M4003 1765 c-3 -9 -3 -18 -1 -21 3 -3 8 4 11 16 6 23 -1 27 -10 5z"/>
<path d="M4033 1695 c0 -27 2 -38 4 -22 2 15 2 37 0 50 -2 12 -4 0 -4 -28z"/>
<path d="M4004 1716 c-3 -8 -4 -27 -2 -43 3 -23 5 -20 9 15 5 43 2 53 -7 28z"/>
<path d="M1515 1429 c-4 -6 3 -13 15 -16 13 -3 19 -11 16 -19 -3 -8 -1 -14 3
-14 5 0 8 -8 6 -17 -2 -10 -4 -22 -4 -27 -1 -6 -8 -1 -17 10 -15 17 -15 17 0
-8 9 -15 13 -33 10 -41 -3 -8 2 -14 11 -14 11 0 15 7 12 18 -3 11 1 16 12 14
9 -2 18 -4 20 -4 2 -1 -7 -12 -21 -24 -24 -23 -25 -24 -7 -35 23 -14 32 -15
24 -3 -3 5 -1 12 5 16 6 4 8 10 5 15 -3 5 -1 11 3 14 11 6 10 -34 -1 -51 -4
-6 -3 -14 2 -17 5 -4 11 -1 13 5 2 7 8 6 16 -3 9 -12 8 -14 -8 -13 -11 1 -23
4 -26 8 -18 18 -22 4 -5 -15 11 -11 18 -25 15 -30 -3 -4 0 -9 5 -9 26 -3 30
-4 36 -11 4 -3 2 -22 -3 -41 -8 -29 -7 -35 3 -30 8 2 11 11 9 18 -3 7 0 16 7
21 7 4 10 3 6 -4 -10 -15 3 -42 19 -42 8 0 14 -4 14 -10 0 -5 7 -10 15 -10 8
0 15 -7 15 -16 0 -8 4 -13 9 -10 5 4 12 0 15 -6 5 -10 7 -10 12 0 8 17 27 15
21 -2 -4 -10 0 -14 13 -11 10 2 21 -3 24 -11 3 -7 12 -11 21 -8 10 4 15 0 16
-12 0 -17 1 -16 9 2 5 12 13 25 19 29 13 8 14 3 1 -29 -6 -17 -6 -26 0 -26 6
0 10 9 10 20 0 11 5 20 10 20 6 0 10 -5 10 -11 0 -6 7 -9 14 -6 10 4 13 1 9
-9 -3 -8 -12 -13 -19 -10 -8 3 -11 0 -7 -10 4 -11 9 -12 16 -5 17 17 27 13 20
-6 -6 -17 -5 -17 12 0 14 15 20 16 26 5 7 -10 9 -8 9 6 0 11 3 16 6 13 4 -3
14 -2 24 3 12 6 23 5 36 -5 25 -19 34 -19 34 0 0 8 7 15 15 15 8 0 15 5 15 11
0 6 -7 9 -15 5 -8 -3 -15 -1 -15 4 0 6 10 10 23 11 12 0 -7 7 -43 15 -79 18
-133 35 -140 43 -13 15 -52 31 -63 25 -7 -4 -9 -4 -5 1 4 4 2 13 -5 19 -14 14
-124 87 -151 101 -11 6 -43 43 -71 83 -67 93 -94 122 -117 122 -11 0 -16 5
-13 10 3 6 4 10 1 10 -3 0 -8 -5 -11 -11z m65 -49 c6 -11 8 -20 6 -20 -3 0
-10 9 -16 20 -6 11 -8 20 -6 20 3 0 10 -9 16 -20z m70 -190 c0 -5 -2 -10 -4
-10 -3 0 -8 5 -11 10 -3 6 -1 10 4 10 6 0 11 -4 11 -10z m120 -130 c0 -5 -4
-10 -10 -10 -5 0 -10 5 -10 10 0 6 5 10 10 10 6 0 10 -4 10 -10z m90 -44 c0
-3 -4 -8 -10 -11 -5 -3 -10 -1 -10 4 0 6 5 11 10 11 6 0 10 -2 10 -4z m230
-26 c8 -5 12 -11 10 -14 -3 -2 -14 2 -24 10 -22 15 -10 19 14 4z m-100 -14 c0
-3 -4 -8 -10 -11 -5 -3 -10 -1 -10 4 0 6 5 11 10 11 6 0 10 -2 10 -4z"/>
<path d="M2010 1402 c0 -6 6 -13 13 -16 6 -4 2 -4 -9 -2 -15 2 -21 -1 -20 -13
0 -9 -4 -15 -11 -14 -6 1 -17 -5 -24 -15 -7 -9 -9 -14 -5 -10 13 11 37 -12 29
-26 -14 -21 -11 -35 5 -29 10 4 13 2 8 -5 -4 -7 -2 -12 4 -12 6 0 8 -5 5 -10
-4 -6 -12 -7 -18 -3 -8 5 -8 2 0 -9 7 -8 9 -19 5 -23 -4 -5 -1 -4 7 0 11 6 13
4 8 -11 -7 -18 -6 -18 7 -1 12 16 14 16 14 -8 0 -14 -5 -22 -11 -18 -6 4 -7 1
-2 -6 5 -9 10 -10 18 -2 16 16 54 13 61 -4 4 -11 11 -13 23 -8 27 13 53 10 63
-7 7 -10 10 -11 10 -2 0 6 4 12 10 12 5 0 7 -8 4 -17 -4 -10 3 -5 14 10 15 23
21 25 25 13 7 -18 37 -22 37 -5 0 5 -4 8 -9 4 -5 -3 -12 -1 -15 4 -7 11 13 9
32 -3 7 -4 11 -3 10 4 -2 6 12 17 30 25 18 8 30 10 27 5 -9 -14 34 -3 50 14
11 11 12 16 2 20 -6 3 1 2 17 -1 25 -5 28 -3 22 12 -5 14 -2 16 14 12 11 -3
20 -1 20 4 0 5 -32 9 -72 9 -107 0 -277 56 -370 122 -16 11 -28 15 -28 10z
m-5 -58 c-13 -14 -19 -14 -28 -4 -9 10 -9 11 0 6 6 -3 14 -2 18 4 3 5 11 10
16 10 6 0 3 -7 -6 -16z"/>
<path d="M3554 1300 c0 -13 4 -16 10 -10 7 7 7 13 0 20 -6 6 -10 3 -10 -10z"/>
<path d="M1626 1148 c3 -4 9 -8 15 -8 5 0 9 4 9 8 0 5 -7 9 -15 9 -8 0 -12 -4
-9 -9z"/>
<path d="M3655 960 c-16 -17 -16 -20 -3 -15 9 4 19 13 22 21 7 19 2 18 -19 -6z"/>
<path d="M1958 825 c-4 -4 -4 -13 -1 -20 6 -18 -57 -11 -69 7 -6 10 -10 10
-18 -2 -14 -22 -12 -38 8 -73 9 -18 18 -33 19 -35 1 -2 10 1 21 7 17 9 19 8
15 -8 -3 -10 0 -22 6 -25 7 -4 9 -1 5 8 -4 11 1 14 20 12 14 -1 29 -6 34 -11
4 -4 2 -5 -5 -1 -13 7 -26 -9 -30 -39 -3 -17 -1 -18 8 -5 8 11 12 12 16 3 5
-15 23 -18 23 -5 0 5 -10 14 -22 20 l-23 10 23 -1 c12 -1 22 -5 22 -9 0 -4 7
-8 15 -8 8 0 15 -5 15 -10 0 -6 17 -11 38 -10 20 0 55 0 77 0 30 0 36 -2 25
-10 -11 -7 -7 -10 20 -10 26 0 31 3 20 10 -22 14 -3 12 20 -2 14 -9 23 -10 28
-3 4 6 21 11 37 11 112 5 146 10 190 29 28 12 63 25 79 29 21 5 26 10 17 15
-11 7 -11 9 0 13 8 3 -32 6 -88 7 -132 2 -323 25 -333 40 -3 5 -13 9 -22 9
-40 4 -45 6 -44 16 1 6 -3 11 -9 11 -5 0 -9 -5 -9 -11 1 -6 -4 -11 -11 -11 -7
0 -11 5 -9 11 2 6 -8 12 -23 13 -54 4 -68 8 -73 21 -3 7 -9 10 -12 7z m-38
-95 c0 -5 -4 -10 -10 -10 -5 0 -10 5 -10 10 0 6 5 10 10 10 6 0 10 -4 10 -10z"/>
<path d="M2643 620 c-11 -16 -10 -18 2 -14 8 4 15 12 15 20 0 19 -3 18 -17 -6z"/>
</g>
</svg>
